<svg version="1.1" viewBox="0.0 0.0 1122.5196850393702 793.7007874015748" fill="none" stroke="none" stroke-linecap="square" stroke-miterlimit="10" xmlns:xlink="http://www.w3.org/1999/xlink" xmlns="http://www.w3.org/2000/svg"><clipPath id="p.0"><path d="m0 0l1122.5197 0l0 793.7008l-1122.5197 0l0 -793.7008z" clip-rule="nonzero"/></clipPath><g clip-path="url(#p.0)"><path fill="#e9edee" d="m0 0l1122.5197 0l0 793.7008l-1122.5197 0z" fill-rule="evenodd"/><path fill="#ffffff" d="m0 0l1122.5197 0l0 75.27559l-1122.5197 0z" fill-rule="evenodd"/><path fill="#eb5600" d="m147.71391 190.90657l0 -7.0716095l45.772003 0l0 7.0716095z" fill-rule="evenodd"/><path fill="#1a9988" d="m101.93645 190.90657l0 -7.0716095l46.15901 0l0 7.0716095z" fill-rule="evenodd"/><path fill="#000000" fill-opacity="0.0" d="m81.93964 182.25722l971.7795 0l0 87.49608l-971.7795 0z" fill-rule="evenodd"/><path fill="#1a1a1a" d="m149.45526 255.5111q-15.296875 -6.015625 -19.984375 -17.53125q-3.34375 12.0 -22.828125 17.671875l-3.4375 -6.5625q21.953125 -5.65625 21.953125 -23.65625l0 -8.09375l-1.53125 0q-2.8125 5.625 -9.109375 11.921875l-5.25 -5.21875q9.484375 -9.484375 12.421875 -22.640625l6.40625 1.6875q2.1875 1.625 -0.328125 3.078125q-0.59375 1.765625 -1.765625 4.9375l18.875 0l1.25 -1.265625l4.640625 3.828125q2.046875 2.515625 -0.921875 2.890625q-2.84375 7.015625 -9.96875 16.9375l-5.359375 -4.71875q6.0 -7.5 7.375 -11.4375l-9.578125 0l0 6.9375q0 15.78125 20.15625 24.0l-3.015625 7.234375zm-33.015625 -21.96875q-6.859375 7.625 -13.359375 12.09375q-0.859375 3.40625 -2.71875 0.90625l-3.78125 -5.65625q8.5625 -5.546875 15.4375 -12.40625l4.421875 5.0625zm-7.890625 -12.671875q-4.09375 -4.65625 -9.765625 -7.609375l4.5625 -6.078125q5.921875 2.6875 10.328125 7.0625l-5.125 6.625zm101.203125 23.984375l0 6.921875l-36.515625 0l0 3.9375l-6.46875 0l0 -32.140625l-8.5625 0l0 -6.921875l8.5625 0l0 -12.953125l5.375 0q4.21875 0.53125 1.09375 2.78125l0 10.171875l8.09375 0l0 -14.34375l5.375 0q4.21875 0.53125 1.09375 2.78125l0 11.5625l9.484375 0l0 -13.421875l5.375 0q4.21875 0.53125 1.09375 2.78125l0 10.640625l8.546875 0l0 6.921875l-8.546875 0l0 17.34375l-6.46875 0l0 -2.78125l-9.484375 0l0 3.9375l-6.46875 0l0 -18.5l-8.09375 0l0 21.28125l36.515625 0zm-12.46875 -12.953125l0 -8.328125l-9.484375 0l0 8.328125l9.484375 0zm55.34375 -27.734375q5.03125 0.4375 1.09375 3.21875l0.609375 11.484375l17.015625 -1.859375l0.96875 6.21875l-17.15625 1.859375q1.484375 14.65625 8.578125 20.203125q2.15625 1.71875 2.4375 -0.78125l0.625 -5.484375l6.640625 3.46875l-0.8125 4.15625q-2.359375 11.781265 -11.84375 5.203125q-10.75 -7.421875 -12.328125 -26.125l-12.984375 1.15625l-0.328125 -6.234375l12.5 -1.15625l-0.703125 -15.90625l5.6875 0.578125zm-33.765625 23.890625q8.796875 -7.078125 12.875 -25.09375l6.171875 1.96875q3.609375 2.390625 -0.296875 2.84375q-0.609375 3.8125 -3.65625 10.921875q4.21875 0.71875 0.3125 2.890625l0 33.4375l-6.46875 0l0 -25.46875q-1.421875 2.0625 -4.328125 4.3125l-4.609375 -5.8125zm40.734375 -22.578125q5.140625 3.78125 8.078125 7.3125l-5.578125 5.25q-2.609375 -3.765625 -7.484375 -7.546875l4.984375 -5.015625zm44.03125 22.484375l-23.125 0l0 -6.921875l49.234375 0l0 6.921875l-18.953125 0l0 2.09375q0 14.96875 -11.265625 25.234375l-6.203125 -4.640625q10.3125 -8.109375 10.3125 -20.59375l0 -2.09375zm-14.796875 -14.09375l0 -6.9375l30.28125 0l0 6.9375l-30.28125 0zm32.484375 -11.578125q3.59375 3.578125 7.609375 9.484375l-4.71875 3.390625q-3.75 -5.359375 -7.640625 -9.828125l4.75 -3.046875zm5.546875 -3.046875q3.59375 3.859375 7.640625 9.28125l-4.734375 3.390625q-4.1875 -5.78125 -7.6875 -9.25l4.78125 -3.421875zm60.922363 25.125q-12.359375 19.875 -36.9375 27.671875q-1.078125 4.3750153 -3.859375 0.015625l-3.9375 -6.21875q26.109375 -5.734375 39.234375 -26.984375l5.5 5.515625zm-36.59375 7.65625q-7.59375 -5.5625 -13.109375 -8.328125l4.5625 -6.390625q6.53125 3.40625 13.359375 8.390625l-4.8125 6.328125zm7.0 -13.625q-6.984375 -4.90625 -13.109375 -8.359375l4.0 -6.421875q7.03125 3.921875 13.359375 8.390625l-4.25 6.390625zm18.875 -18.21875q4.625 3.515625 9.21875 8.390625l-4.328125 4.328125q-4.75 -5.28125 -9.265625 -8.671875l4.375 -4.046875zm-5.46875 3.9375q4.546875 3.765625 9.15625 8.640625l-4.359375 4.015625q-4.5 -4.78125 -9.515625 -8.9375l4.71875 -3.71875zm43.48877 3.78125q-0.8125 2.40625 -1.5 3.65625l13.796875 0l2.921875 -1.0625l3.46875 3.453125q1.75 2.1875 -0.828125 3.15625q-1.765625 8.859375 -5.15625 15.859375l5.640625 3.78125l-4.5 6.640625l-5.109375 -3.71875q-6.296875 9.140625 -19.5 15.734375l-7.078125 -5.21875q15.09375 -6.296875 20.46875 -14.765625q-4.984375 -3.1875 -11.390625 -6.65625l3.78125 -5.640625q7.90625 3.578125 11.71875 5.84375q2.96875 -6.109375 3.515625 -10.46875l-15.296875 0q-4.1875 7.5 -11.296875 14.59375l-5.921875 -4.046875q12.375 -12.875 16.296875 -27.296875l6.546875 2.71875q3.859375 1.953125 -0.578125 3.4375zm59.37793 34.21875q8.65625 -3.359375 17.796875 -15.9375l4.375 5.953125q-9.328125 12.78125 -22.953125 18.1875l-2.328125 1.15625l-4.703125 -3.546875l0.640625 -1.640625l0 -37.96875l5.890625 0q3.96875 0.890625 1.28125 3.1875l0 30.609375zm-33.375 7.71875q12.109375 -11.625 12.109375 -27.640625l0 -11.328125l5.859375 0q4.015625 0.859375 1.296875 3.1875l0 7.90625q0 19.828125 -13.078125 31.921875l-6.1875 -4.046875zm93.484375 -28.578125l-32.140625 0l0 -6.921875l39.296875 0l0 34.90625l-7.15625 0l0 -2.546875l-32.140625 0l0 -6.9375l32.140625 0l0 -18.5zm63.586914 1.796875q-12.828125 26.609375 -41.6875 28.0q-1.71875 4.484375 -3.8125 -0.09375l-2.21875 -7.234375q30.671875 -0.71875 41.296875 -25.25l6.421875 4.578125zm-33.75 1.578125q-6.84375 -6.34375 -13.15625 -10.5625l5.0625 -6.28125q5.625 3.5 13.796875 11.140625l-5.703125 5.703125zm51.06421 -2.90625q10.734375 3.078125 23.234375 9.0625l-3.65625 6.96875q-12.96875 -6.625 -19.578125 -8.359375l0 23.765625l-7.15625 0l0 -48.078125l5.5625 0q5.1875 0.4375 1.59375 3.21875l0 13.421875zm70.973145 25.421875l-7.171875 0l0 -2.53125l-23.8125 0l0 3.6875l-7.15625 0l0 -37.90625l38.140625 0l0 36.75zm-30.984375 -29.8125l0 20.34375l23.8125 0l0 -20.34375l-23.8125 0zm41.392334 14.796875l0 -6.9375l53.390625 0l0 6.9375l-53.390625 0zm92.46924 9.984375q8.65625 -3.359375 17.796875 -15.9375l4.375 5.953125q-9.328125 12.78125 -22.953125 18.1875l-2.328125 1.15625l-4.703125 -3.546875l0.640625 -1.640625l0 -37.96875l5.890625 0q3.96875 0.890625 1.28125 3.1875l0 30.609375zm-33.375 7.71875q12.109375 -11.625 12.109375 -27.640625l0 -11.328125l5.859375 0q4.015625 0.859375 1.296875 3.1875l0 7.90625q0 19.828125 -13.078125 31.921875l-6.1875 -4.046875zm102.71875 -5.6875l0 6.9375l-26.34375 0q-7.546875 0 -10.609375 -3.046875q-3.03125 -3.046875 -3.03125 -8.046875q0 -2.671875 1.15625 -7.03125l7.203125 0.953125q-1.4375 4.59375 -1.4375 6.078125q0 1.703125 1.125 2.8125q1.34375 1.34375 5.8125 1.34375l26.125 0zm-36.515625 -27.046875l0 -6.9375l31.890625 0l0 6.9375l-31.890625 0zm35.046875 -17.390625q4.75 2.5 10.34375 6.765625l-3.0625 4.765625q-5.84375 -4.21875 -10.34375 -6.765625l3.0625 -4.765625zm-3.234375 5.328125q4.75 2.5 10.34375 6.765625l-3.078125 4.765625q-5.828125 -4.234375 -10.328125 -6.765625l3.0625 -4.765625zm46.835693 37.140625q1.3125 2.21875 4.578125 4.078125l0 -13.203125l-14.5625 0l0 -6.234375l35.359375 0l0 6.234375l-14.328125 0l0 3.234375l10.859375 0l0 6.25l-10.859375 0l0 6.1875q1.25 0.28125 4.390625 0.28125l10.5625 0l-1.0 6.234375l-10.03125 0q-11.765625 0 -17.46875 -6.984375q-3.625 5.609375 -8.421875 8.17189l-4.078125 -5.0312653q8.984375 -6.828125 10.21875 -17.859375l6.0 1.4375q3.796875 2.171875 -0.0625 3.015625l-1.15625 4.1875zm-15.3125 -14.578125l4.359375 -1.53125l1.34375 5.6875l-5.703125 2.375l0 16.953125q0 4.625 -4.625 4.625l-5.40625 0l-0.984375 -6.234375l4.546875 0q0 0 0 0l0 -13.0l-3.625 1.421875q-1.0 3.4375 -2.578125 0.34375l-1.609375 -6.28125l7.8125 -2.375l0 -12.03125l-6.46875 0l0 -6.234375l6.46875 0l0 -9.9375l5.375 0q4.21875 0.53125 1.09375 2.78125l0 7.15625l6.703125 0l0 6.234375l-6.703125 0l0 10.046875zm8.78125 -24.140625l27.515625 0l0 21.265625l-27.515625 0l0 -21.265625zm5.78125 5.546875l0 2.3125l15.953125 0l0 -2.3125l-15.953125 0zm0 7.859375l0 2.3125l15.953125 0l0 -2.3125l-15.953125 0zm55.828125 4.15625q-0.53125 1.046875 -0.78125 1.046875q2.875 0.140625 8.96875 1.21875q2.046875 -1.671875 2.3125 -2.265625l-10.5 0zm1.8125 5.984375q-1.625 -0.4375 -6.3125 -0.84375q-0.234375 0.34375 -2.171875 1.953125l-5.1875 -2.40625q5.046875 -5.0625 5.171875 -4.890625l-7.53125 0.203125l0 -5.53125l11.171875 0q0.578125 -0.578125 2.21875 -3.3125l4.75 0.5625q2.328125 1.578125 -0.140625 2.546875q-0.375 0.734375 -0.734375 0.578125l20.1875 -0.375l0 5.53125l-6.328125 0q-1.0 2.40625 -2.390625 3.671875q5.28125 1.234375 13.90625 4.1875l-3.71875 5.0625q-10.28125 -4.15625 -15.078125 -5.203125q-5.90625 4.984375 -24.671875 5.734375l-2.703125 -6.125q14.25 0.765625 19.5625 -1.34375zm5.9375 7.203125l22.890625 0l0 5.546875l-19.75 0q7.609375 5.359375 21.40625 7.078125l-2.1875 7.21875q-15.15625 -3.734375 -22.359375 -9.578125l0 11.92189l-6.46875 0l0 -11.781265q-6.015625 5.4375 -21.640625 10.65625l-2.203125 -6.953125q13.953125 -2.953125 20.796875 -8.5625l-19.609375 0l0 -5.546875l22.65625 0l0 -3.234375l5.375 0q4.21875 0.53125 1.09375 2.78125l0 0.453125zm0 -27.046875l22.421875 0l0 11.78125l-6.46875 0l0 -6.234375l-38.390625 0l0 6.234375l-6.453125 0l0 -11.78125l22.421875 0l0 -5.09375l5.375 0q4.21875 0.53125 1.09375 2.78125l0 2.3125z" fill-rule="nonzero"/><path fill="#000000" fill-opacity="0.0" d="m268.8819 556.08923l584.7559 0l0 152.15747l-584.7559 0z" fill-rule="evenodd"/><path fill="#1a1a1a" d="m310.16647 611.16925l-4.21875 0l0 -26.890625q-1.53125 1.453125 -4.0 2.90625q-2.46875 1.453125 -4.4375 2.1875l0 -4.078125q3.53125 -1.671875 6.171875 -4.03125q2.65625 -2.375 3.765625 -4.59375l2.71875 0l0 34.5zm13.1640625 0l0 -4.8125l4.8125 0l0 4.8125l-4.8125 0z" fill-rule="nonzero"/><path fill="#1a1a1a" d="m382.18353 577.04425l17.8125 0l0 9.75l-3.75 0l0 -6.1875l-31.6875 0l0 6.1875l-3.75 0l0 -9.75l17.0625 0l0 -4.5l4.125 0q1.875 0.375 0.1875 1.5l0 3.0zm-15.1875 8.25l26.4375 0l0 3.5625l-26.4375 0l0 -3.5625zm-7.125 8.4375l40.875 0l0 3.5625l-13.6875 0l0 11.625q0 1.5 1.3125 1.5l6.375 0q1.875 0 2.0625 -1.875l0.375 -3.1875l4.3125 0.9375l-0.9375 4.6875q-0.75 3.5625 -5.0625 3.5625l-9.375 0q-3.375 0 -3.375 -3.1875l0 -14.0625l-6.0 0l0 3.0q0 11.8125 -15.5625 15.1875l-1.5 -4.3125q12.75 -2.0625 12.75 -11.0625l0 -2.8125l-12.5625 0l0 -3.5625zm67.875 -16.5q-5.4375 7.6875 -10.6875 11.25l23.625 0q-6.1875 -3.375 -12.9375 -11.25zm-12.375 12.375q-2.625 1.5 -6.1875 3.375l-1.875 -3.9375q12.75 -5.4375 18.75 -17.0625l4.125 0.5625q1.5 0.5625 -0.1875 0.9375l-0.375 0.5625q8.4375 10.3125 20.0625 13.875l-1.875 4.125q-2.25 -0.75 -6.375 -3.1875l0 3.1875l-11.0625 0l0 6.375l12.1875 0l0 3.5625l-12.1875 0l0 7.3125l17.25 0l0 3.5625l-38.25 0l0 -3.5625l17.25 0l0 -7.3125l-12.1875 0l0 -3.5625l12.1875 0l0 -6.375l-11.25 0l0 -2.4375zm38.25 16.6875q12.0 -7.6875 18.75 -18.375l-17.625 0l0 -4.125l19.875 0l0 -10.3125l3.9375 0q1.6875 0.375 0.375 1.5l0 8.8125l15.75 0l0 4.125l-15.75 0l0 21.9375q0 4.5 -4.3125 4.5l-5.25 0l-0.75 -4.125l3.75 0q2.25 -0.375 2.25 -2.4375l0 -15.75q-7.125 10.5 -17.25 17.625l-3.75 -3.375zm45.9375 -10.5l0 -4.125l41.8125 0l0 4.125l-41.8125 0zm54.1875 -7.125q9.1875 2.625 18.5625 7.125l-2.25 4.3125q-9.9375 -5.0625 -16.3125 -6.75l0 19.5l-4.3125 0l0 -37.5l3.75 0q2.25 0.1875 0.5625 1.5l0 11.8125z" fill-rule="nonzero"/><path fill="#1a1a1a" d="m316.44772 693.5067l0 4.0625l-22.71875 0q-0.046875 -1.53125 0.5 -2.9375q0.859375 -2.3125 2.765625 -4.5625q1.921875 -2.25 5.53125 -5.203125q5.59375 -4.59375 7.5625 -7.28125q1.96875 -2.6875 1.96875 -5.078125q0 -2.5 -1.796875 -4.21875q-1.78125 -1.734375 -4.671875 -1.734375q-3.046875 0 -4.875 1.828125q-1.828125 1.828125 -1.84375 5.0625l-4.34375 -0.4375q0.453125 -4.859375 3.359375 -7.390625q2.90625 -2.546875 7.796875 -2.546875q4.953125 0 7.828125 2.75q2.890625 2.734375 2.890625 6.78125q0 2.0625 -0.84375 4.0625q-0.84375 1.984375 -2.8125 4.1875q-1.953125 2.203125 -6.5 6.046875q-3.796875 3.1875 -4.875 4.328125q-1.078125 1.140625 -1.78125 2.28125l16.859375 0zm6.8828125 4.0625l0 -4.8125l4.8125 0l0 4.8125l-4.8125 0z" fill-rule="nonzero"/><path fill="#1a1a1a" d="m392.49603 665.3192q1.5 0 2.4375 -0.9375q0.9375 -0.9375 0.9375 -2.4375q0 -1.5 -0.9375 -2.4375q-0.9375 -0.9375 -2.4375 -0.9375q-1.5 0 -2.4375 0.9375q-0.9375 0.9375 -0.9375 2.4375q0 1.5 0.9375 2.4375q0.9375 0.9375 2.4375 0.9375zm0 1.875q-2.25 0 -3.75 -1.5q-1.5 -1.5 -1.5 -3.75q0 -2.25 1.5 -3.75q1.5 -1.5 3.75 -1.5q2.25 0 3.75 1.5q1.5 1.5 1.5 3.75q0 2.25 -1.5 3.75q-1.5 1.5 -3.75 1.5zm-33.5625 2.4375l0 -4.125l27.75 0l4.875 3.5625q-0.9375 22.6875 -25.6875 29.625l-3.375 -4.125q23.4375 -5.4375 24.5625 -24.9375l-28.125 0zm75.1875 24.75l-4.3125 0l0 -2.0625l-20.8125 0l0 3.0l-4.3125 0l0 -29.25l29.4375 0l0 28.3125zm-25.125 -24.1875l0 18.0l20.8125 0l0 -18.0l-20.8125 0zm66.1875 1.6875q-3.5625 20.4375 -23.4375 29.25l-3.375 -3.5625q18.375 -7.5 22.125 -25.875l-15.0 0q-4.3125 7.125 -9.0 11.4375l-3.75 -2.4375q9.75 -8.8125 12.5625 -20.625l4.3125 1.5q1.125 0.5625 -0.375 1.125q-0.75 2.4375 -2.0625 4.875l13.5 0l1.6875 -0.9375l3.375 3.375q1.3125 1.3125 -0.5625 1.875zm1.125 -4.5q-3.0 -4.3125 -5.8125 -6.5625l2.4375 -2.0625q3.1875 2.8125 6.0 6.5625l-2.625 2.0625zm5.4375 -2.25q-3.0 -3.75 -5.4375 -6.0l2.25 -2.25q2.8125 2.625 5.4375 6.0l-2.25 2.25zm14.0625 32.625q18.1875 -4.6875 20.4375 -19.6875l-28.5 0l0 -4.125l28.6875 0l1.6875 -0.5625l3.375 2.0625q1.125 0.9375 -0.375 1.6875q-3.0 18.75 -21.9375 24.375l-3.375 -3.75zm21.1875 -30.375l-25.875 0l0 -4.125l25.875 0l0 4.125zm9.75 23.4375l7.875 -0.1875q6.75 -14.625 10.3125 -29.8125l4.3125 1.5q1.6875 1.125 -0.375 1.6875q-3.5625 13.3125 -9.5625 26.25l19.5 -0.9375q-3.9375 -5.25 -6.1875 -7.6875l3.75 -2.625q6.375 6.9375 12.1875 16.3125l-4.125 2.8125l-3.0 -4.875l-31.5 2.4375q-1.125 1.875 -1.6875 0l-1.5 -4.875zm57.5625 0l0 1.875l21.5625 0l0 -1.875l-21.5625 0zm9.0 -26.0625l-13.125 0l0 -3.0l13.125 0l0 -3.375l3.5625 0q1.5 0.1875 0.1875 1.125l0 2.25l12.9375 0l0 5.0625l6.1875 0l0 3.0l-6.1875 0l0 5.25l-12.9375 0l0 2.25l13.6875 0l0 3.0l-13.6875 0l0 2.25l19.6875 0l0 3.0l-43.125 0l0 -3.0l19.6875 0l0 -2.25l-13.6875 0l0 -3.0l13.6875 0l0 -2.25l-13.3125 0l0 -3.0l13.3125 0l0 -2.25l-18.9375 0l0 -3.0l18.9375 0l0 -2.0625zm-12.75 23.0625l29.0625 0l0 13.6875l-3.75 0l0 -0.9375l-21.5625 0l0 0.9375l-3.75 0l0 -13.6875zm3.75 7.875l0 1.875l21.5625 0l0 -1.875l-21.5625 0zm21.9375 -28.875l0 -2.0625l-9.1875 0l0 2.0625l9.1875 0zm-9.1875 3.0l0 2.25l9.1875 0l0 -2.25l-9.1875 0zm44.4375 0q0.75 2.25 2.25 4.6875q6.0 -0.9375 11.8125 -2.625l1.6875 3.9375q-4.875 1.125 -11.4375 2.0625q2.8125 3.75 7.3125 7.125l-3.1875 3.1875q-6.75 -1.5 -10.6875 -1.5q-7.5 0 -9.75 2.25q-1.3125 1.3125 -1.3125 2.8125q0 1.875 1.125 3.0q1.5 1.5 8.4375 1.5l11.4375 0l-0.75 4.125l-11.4375 0q-7.5 0 -10.5 -3.0q-2.25 -2.25 -2.25 -5.8125q0 -2.8125 2.0625 -4.875q3.1875 -3.1875 13.125 -3.1875q3.375 0 6.75 0.5625q-2.625 -2.8125 -4.6875 -5.4375q-8.8125 1.125 -19.3125 1.125l-0.5625 -3.9375q9.5625 0.1875 18.0 -0.75q-1.3125 -2.4375 -2.0625 -4.6875q-6.9375 0.5625 -14.4375 0.5625l-0.375 -3.75q7.6875 0.1875 13.875 -0.375q-0.9375 -3.375 -1.5 -7.6875l4.125 0q1.875 0.375 0.1875 1.5q0.375 2.8125 0.9375 5.625q4.875 -0.5625 9.9375 -1.875l1.3125 3.75q-6.375 1.125 -10.125 1.6875zm34.875 -1.6875l0 3.1875q4.125 -3.75 7.125 -12.9375l3.5625 0.9375q0.375 0.375 -0.5625 0.9375l-0.75 1.6875l9.0 0l0.5625 -0.5625l2.4375 2.0625q0.5625 0.75 -0.375 0.9375l-3.5625 5.25l7.6875 0l0 16.875l3.75 0l0 3.0l-12.9375 0q3.375 6.5625 13.6875 7.875l-1.6875 4.3125q-8.8125 -1.875 -13.875 -8.8125q-2.4375 7.3125 -15.0 9.1875l-0.9375 -3.75q12.375 -1.5 13.3125 -8.8125l-12.375 0l0 -3.0l3.75 0l0 -12.9375q-0.375 0.9375 -2.8125 3.1875l-2.4375 -3.1875l2.25 -1.875l-4.5 0l0 9.1875l4.125 -1.3125l0.5625 3.375l-4.6875 1.6875l0 14.25q0 3.0 -3.0 3.0l-3.5625 0l-0.5625 -4.125l2.625 0q0.75 0 0.75 -0.75l0 -11.4375l-3.75 1.125q-0.5625 0.9375 -1.125 0.375l-0.9375 -3.9375l5.8125 -1.5l0 -9.9375l-5.0625 0l0 -3.5625l5.0625 0l0 -9.1875l3.5625 0q1.5 0.1875 0.1875 1.3125l0 7.875l4.6875 0zm15.375 4.5l-3.1875 0l0 3.0q0 5.4375 -4.125 7.6875l-1.875 -2.8125q2.8125 -1.5 2.8125 -5.25l0 -2.625l-3.0 0l0 13.875l5.625 0l0 -3.9375l3.5625 0q1.5 0.1875 0.1875 1.125l0 2.8125l6.5625 0l0 -4.5l-4.3125 0q-2.25 0 -2.25 -2.8125l0 -6.5625zm3.1875 5.625q0 0.75 0.75 0.75l2.625 0l0 -6.375l-3.375 0l0 5.625zm-10.3125 -13.3125q-1.3125 2.8125 -2.625 4.6875l8.0625 0l3.0 -4.6875l-8.4375 0zm29.0625 8.25q16.6875 -1.125 21.375 -1.875l1.5 -0.75l3.1875 3.1875q-7.125 5.0625 -12.0 10.3125q3.75 -0.5625 4.875 -0.1875q2.0625 0.75 2.0625 3.1875l0 6.375q0 2.25 2.25 2.0625l10.875 0l-0.75 4.125l-9.375 0q-6.75 0 -6.75 -5.8125l0 -4.6875q0 -2.25 -2.8125 -2.25q-2.4375 0 -4.875 2.25q-4.875 4.5 -9.1875 9.75l-3.375 -2.25q9.0 -10.5 21.1875 -21.375l-16.875 2.0625l-1.3125 -4.125zm22.5 -6.9375q-8.4375 -0.1875 -17.4375 -1.125l0.5625 -4.3125q7.125 1.5 17.4375 1.5l-0.5625 3.9375z" fill-rule="nonzero"/><path fill="#000000" fill-opacity="0.0" d="m212.92914 327.47244l696.66144 0l0 170.89764l-696.66144 0z" fill-rule="evenodd"/><path stroke="#434343" stroke-width="3.0" stroke-linejoin="round" stroke-linecap="butt" d="m212.92914 327.47244l696.66144 0l0 170.89764l-696.66144 0z" fill-rule="evenodd"/><path fill="#1a1a1a" d="m235.30414 354.69244l-12.5 0l0 -2.75l25.625 0l0 2.75l-10.25 0l0 1.625q0 7.875 -5.625 13.0l-2.5 -1.875q5.25 -4.125 5.25 -11.125l0 -1.625zm-8.0 -7.625l0 -2.75l16.625 0l0 2.75l-16.625 0zm24.5 9.875l0 -2.75l27.875 0l0 2.75l-27.875 0zm46.0 3.5q2.625 2.5 4.25 4.375l-2.5 2.25q-4.75 -5.625 -10.875 -10.125l1.75 -2.25q2.25 1.375 5.0 3.875q3.75 -3.75 7.625 -9.25l-19.625 0.875l-0.5 -3.125l21.875 -0.5l1.25 -0.375l1.875 2.0q0.625 1.0 -0.5 0.875q-3.125 4.125 -9.625 11.375z" fill-rule="nonzero"/><path fill="#1a1a1a" d="m310.13486 451.51242q27.25 -6.0 41.0 -28.25l4.5 4.5q-12.75 20.5 -39.5 29.0q-0.75 3.0 -2.5 0.25l-3.5 -5.5zm-1.75 -30.25q6.25 3.25 12.75 8.0l-4.0 5.25q-7.5 -5.5 -12.5 -8.0l3.75 -5.25zm7.0 -14.75q6.75 3.75 12.75 8.0l-3.5 5.25q-6.75 -4.75 -12.5 -8.0l3.25 -5.25zm95.75 20.0q-13.25 27.5 -44.5 29.0q-1.25 3.25 -2.5 0.5l-2.0 -6.5q32.5 -0.75 43.75 -26.75l5.25 3.75zm-35.25 0q-6.75 -6.25 -12.75 -10.25l4.25 -5.25q5.25 3.25 13.25 10.75l-4.75 4.75zm86.5 -14.0q2.0 0 3.25 -1.25q1.25 -1.25 1.25 -3.25q0 -2.0 -1.25 -3.25q-1.25 -1.25 -3.25 -1.25q-2.0 0 -3.25 1.25q-1.25 1.25 -1.25 3.25q0 2.0 1.25 3.25q1.25 1.25 3.25 1.25zm0 2.5q-3.0 0 -5.0 -2.0q-2.0 -2.0 -2.0 -5.0q0 -3.0 2.0 -5.0q2.0 -2.0 5.0 -2.0q3.0 0 5.0 2.0q2.0 2.0 2.0 5.0q0 3.0 -2.0 5.0q-2.0 2.0 -5.0 2.0zm-44.75 3.25l0 -5.5l37.0 0l6.5 4.75q-1.25 30.25 -34.25 39.5l-4.5 -5.5q31.25 -7.25 32.75 -33.25l-37.5 0zm90.75 30.0q10.9999695 -4.25 20.24997 -17.0l3.5 4.75q-9.5 13.0 -23.99997 18.75l-2.0 1.0l-4.0 -3.0l0.5 -1.25l0 -40.25l5.25 0q2.25 0.5 0.5 2.0l0 35.0zm-33.5 6.75q12.5 -12.0 12.5 -29.75l0 -11.25l5.25 0q2.25 0.5 0.5 2.0l0 9.0q0 21.0 -13.25 33.25l-5.0 -3.25zm77.74997 -33.5q0 -4.5 2.75 -7.25q2.75 -2.75 8.25 -2.75q5.5 0 8.5 3.0q2.75 2.75 2.75 6.75q0 5.25 -4.25 8.25q-1.75 1.25 -6.25 3.25l3.75 3.5q4.0 3.5 8.5 6.25q3.25 -5.5 4.75 -11.75l5.5 3.0q-2.0 6.25 -5.0 11.5q6.0 2.75 13.0 3.75l-3.5 5.75q-7.0 -1.75 -13.25 -5.0q-2.75 2.5 -6.75 4.0q-4.0 1.5 -8.75 1.5q-8.5 0 -12.5 -4.0q-4.0 -4.0 -4.0 -8.75q0 -4.5 3.5 -8.0q2.0 -2.0 6.25 -4.0q-1.0 -1.5 -1.75 -3.0q-1.5 -3.0 -1.5 -6.0zm7.25 -3.25q-1.25 1.25 -1.25 3.5q0 1.75 1.25 4.25q0.5 1.0 1.5 2.5q3.25 -1.25 5.0 -2.5q2.5 -1.75 2.5 -4.25q0 -2.25 -1.5 -3.75q-1.25 -1.25 -3.75 -1.25q-2.25 0 -3.75 1.5zm-0.75 16.5q-3.0 1.25 -4.75 3.0q-2.0 2.0 -2.0 5.0q0 2.25 2.5 4.75q2.5 2.5 7.75 2.5q2.75 0 5.75 -1.0q2.25 -0.75 4.5 -2.5q-4.25 -3.0 -7.25 -5.5q-3.0 -2.5 -6.5 -6.25zm81.0 -10.75l-14.25 0.5q-1.5 21.25 -19.75 33.5l-4.25 -4.25q17.25 -11.5 18.25 -29.25l-17.75 0.5l-0.5 -5.0l18.5 -0.5l0 -14.0l5.25 0q2.75 0.5 0.5 2.0l0 12.0l19.75 -0.75l0 15.5q0 12.25 -2.25 17.25q-2.25 5.0 -9.5 5.0l-6.0 0l-0.75 -6.25q3.75 0.5 6.5 0.5q3.75 0 4.75 -2.5q1.5 -4.0 1.5 -14.0l0 -10.25zm45.0 8.75q10.75 8.25 21.25 19.0l-5.0 4.25q-10.5 -11.0 -20.25 -18.5q-9.75 10.5 -22.25 18.75l-4.75 -4.25q26.5 -17.25 34.0 -34.5l-27.25 1.75l-0.75 -6.0l29.0 -1.25l3.0 -0.75l4.0 4.0q1.75 1.75 -1.0 2.25q-4.75 8.25 -10.0 15.25zm48.75 -23.75q-1.0 3.0 -2.5 5.75l16.75 0l2.75 -1.0l3.25 3.25q1.0 1.25 -1.0 2.0q-2.0 10.0 -6.0 18.25l6.0 4.0l-3.75 5.5l-5.5 -4.0q-7.25 10.5 -20.75 17.25l-5.75 -4.25q15.0 -6.25 21.5 -16.5q-6.25 -4.0 -12.25 -7.25l3.0 -4.5q7.75 3.5 12.75 6.5q3.75 -7.75 4.5 -13.75l-18.25 0q-4.75 8.5 -11.75 15.5l-4.75 -3.25q12.75 -13.25 16.75 -28.0l6.0 2.5q2.0 1.0 -1.0 2.0zm27.75 37.5l10.5 -0.25q9.0 -19.5 13.75 -39.75l5.75 2.0q2.25 1.5 -0.5 2.25q-4.75 17.75 -12.75 35.0l26.0 -1.25q-5.25 -7.0 -8.25 -10.25l5.0 -3.5q8.5 9.25 16.25 21.75l-5.5 3.75l-4.0 -6.5l-42.0 3.25q-1.5 2.5 -2.25 0l-2.0 -6.5z" fill-rule="nonzero"/></g></svg>