<svg version="1.1" viewBox="0.0 0.0 1122.5196850393702 793.7007874015748" fill="none" stroke="none" stroke-linecap="square" stroke-miterlimit="10" xmlns:xlink="http://www.w3.org/1999/xlink" xmlns="http://www.w3.org/2000/svg"><clipPath id="g304b4d98c5f_0_79.0"><path d="m0 0l1122.5197 0l0 793.7008l-1122.5197 0l0 -793.7008z" clip-rule="nonzero"/></clipPath><g clip-path="url(#g304b4d98c5f_0_79.0)"><path fill="#e9edee" d="m0 0l1122.5197 0l0 793.7008l-1122.5197 0z" fill-rule="evenodd"/><path fill="#ffffff" d="m0 0l1122.5197 0l0 75.27559l-1122.5197 0z" fill-rule="evenodd"/><path fill="#eb5600" d="m147.71391 190.90657l0 -7.0716095l45.772003 0l0 7.0716095z" fill-rule="evenodd"/><path fill="#1a9988" d="m101.93645 190.90657l0 -7.0716095l46.15901 0l0 7.0716095z" fill-rule="evenodd"/><path fill="#000000" fill-opacity="0.0" d="m81.93964 182.25722l971.7795 0l0 87.49608l-971.7795 0z" fill-rule="evenodd"/><path fill="#1a1a1a" d="m127.45526 207.16734l21.96875 0l0 13.859375l-6.46875 0l0 -7.625l-37.234375 0l0 7.625l-6.46875 0l0 -13.859375l21.046875 0l0 -5.546875l6.09375 0q4.59375 0.90625 1.0625 3.265625l0 2.28125zm-20.5625 10.171875l34.4375 0l0 6.234375l-34.4375 0l0 -6.234375zm-8.796875 10.40625l52.25 0l0 6.234375l-16.875 0l0 13.40625q0 0.9375 0.6875 0.9375l7.875 0q1.46875 0 1.609375 -1.484375l0.59375 -4.953125l7.1875 1.5625l-1.328125 6.671875q-1.078125 5.125 -7.140625 5.125l-11.5625 0q-5.078125 0 -5.078125 -4.84375l0 -16.421875l-5.5625 0l0 2.78125q0 15.3125 -20.71875 19.79689l-2.46875 -7.1250153q16.03125 -2.59375 16.03125 -12.90625l0 -2.546875l-15.5 0l0 -6.234375zm86.53125 -17.921875q-6.109375 8.640625 -10.25 11.453125l22.53125 0q-4.609375 -2.515625 -12.28125 -11.453125zm-16.25 15.34375q-1.875 1.078125 -7.125 3.84375l-3.140625 -6.59375q16.296875 -6.953125 23.859375 -21.578125l5.8125 0.796875q4.890625 1.8125 0.109375 2.875l0.125 -0.1875q9.796875 11.984375 24.859375 16.59375l-3.078125 6.8125q-3.65625 -1.21875 -7.4375 -3.46875l0 3.25l-13.640625 0l0 6.015625l15.03125 0l0 6.234375l-15.03125 0l0 7.171875l21.265625 0l0 6.234375l-49.0 0l0 -6.234375l21.265625 0l0 -7.171875l-15.03125 0l0 -6.234375l15.03125 0l0 -6.015625l-13.875 0l0 -2.34375zm48.421875 18.859375q15.640625 -10.015625 22.953125 -21.609375l-20.96875 0l0 -6.921875l24.5 0l0 -12.71875l5.875 0q4.0 0.875 1.28125 3.1875l0 9.53125l19.421875 0l0 6.921875l-19.421875 0l0 26.125q0 6.484375 -6.234375 6.484375l-7.234375 0l-1.265625 -6.9375l5.640625 0q1.9375 -0.328125 1.9375 -2.078125l0 -16.421875q-7.1875 10.59375 -20.421875 19.90625l-6.0625 -5.46875zm59.085205 -11.890625l0 -6.9375l53.390625 0l0 6.9375l-53.390625 0zm70.50049 -10.40625q10.734375 3.078125 23.234375 9.0625l-3.65625 6.96875q-12.96875 -6.625 -19.578125 -8.359375l0 23.765625l-7.15625 0l0 -48.078125l5.5625 0q5.1875 0.4375 1.59375 3.21875l0 13.421875z" fill-rule="nonzero"/><path fill="#000000" fill-opacity="0.0" d="m117.21785 269.7533l854.39374 0l0 358.48816l-854.39374 0z" fill-rule="evenodd"/><path fill="#1a1a1a" d="m142.10847 319.7133l-3.75 0l0 -23.890625q-1.359375 1.296875 -3.5625 2.59375q-2.1875 1.28125 -3.9375 1.921875l0 -3.625q3.15625 -1.46875 5.5 -3.578125q2.359375 -2.109375 3.328125 -4.078125l2.421875 0l0 30.65625zm15.379623 -16.5625q-2.34375 -0.84375 -3.46875 -2.421875q-1.125 -1.59375 -1.125 -3.796875q0 -3.34375 2.390625 -5.609375q2.40625 -2.265625 6.375 -2.265625q4.0 0 6.4375 2.328125q2.4375 2.3125 2.4375 5.640625q0 2.125 -1.109375 3.703125q-1.109375 1.578125 -3.390625 2.421875q2.8125 0.921875 4.28125 2.96875q1.46875 2.03125 1.46875 4.859375q0 3.921875 -2.765625 6.59375q-2.765625 2.65625 -7.296875 2.65625q-4.515625 0 -7.28125 -2.671875q-2.765625 -2.671875 -2.765625 -6.671875q0 -2.984375 1.5 -4.984375q1.515625 -2.015625 4.3125 -2.75zm-0.75 -6.34375q0 2.15625 1.390625 3.53125q1.390625 1.375 3.625 1.375q2.15625 0 3.546875 -1.359375q1.390625 -1.359375 1.390625 -3.34375q0 -2.0625 -1.4375 -3.46875q-1.421875 -1.40625 -3.546875 -1.40625q-2.140625 0 -3.5625 1.375q-1.40625 1.375 -1.40625 3.296875zm-1.21875 14.09375q0 1.609375 0.765625 3.109375q0.765625 1.5 2.265625 2.328125q1.5 0.8125 3.21875 0.8125q2.6875 0 4.4375 -1.71875q1.75 -1.734375 1.75 -4.40625q0 -2.703125 -1.8125 -4.46875q-1.796875 -1.78125 -4.5 -1.78125q-2.640625 0 -4.390625 1.75q-1.734375 1.75 -1.734375 4.375zm43.223373 -1.890625l4.046875 1.015625q-1.28125 4.984375 -4.578125 7.59375q-3.296875 2.609375 -8.078125 2.609375q-4.9375 0 -8.03125 -2.0q-3.078125 -2.015625 -4.703125 -5.828125q-1.609375 -3.8125 -1.609375 -8.1875q0 -4.765625 1.8125 -8.3125q1.828125 -3.5625 5.1875 -5.40625q3.375 -1.84375 7.40625 -1.84375q4.59375 0 7.71875 2.34375q3.125 2.328125 4.34375 6.5625l-3.96875 0.9375q-1.0625 -3.34375 -3.09375 -4.859375q-2.015625 -1.515625 -5.078125 -1.515625q-3.515625 0 -5.890625 1.6875q-2.359375 1.6875 -3.3125 4.53125q-0.953125 2.84375 -0.953125 5.859375q0 3.890625 1.125 6.796875q1.140625 2.90625 3.53125 4.34375q2.390625 1.4375 5.1875 1.4375q3.390625 0 5.75 -1.953125q2.359375 -1.96875 3.1875 -5.8125zm23.039352 10.703125l0 -3.25q-2.59375 3.75 -7.015625 3.75q-1.96875 0 -3.671875 -0.75q-1.6875 -0.75 -2.515625 -1.875q-0.8125 -1.140625 -1.15625 -2.796875q-0.21875 -1.09375 -0.21875 -3.5l0 -13.703125l3.75 0l0 12.265625q0 2.9375 0.21875 3.96875q0.359375 1.46875 1.5 2.3125q1.15625 0.84375 2.828125 0.84375q1.6875 0 3.171875 -0.859375q1.484375 -0.859375 2.09375 -2.34375q0.609375 -1.5 0.609375 -4.328125l0 -11.859375l3.75 0l0 22.125l-3.34375 0zm9.176498 0l0 -22.125l3.375 0l0 3.359375q1.296875 -2.359375 2.390625 -3.109375q1.09375 -0.75 2.40625 -0.75q1.890625 0 3.84375 1.21875l-1.28125 3.46875q-1.375 -0.8125 -2.75 -0.8125q-1.234375 0 -2.21875 0.75q-0.96875 0.734375 -1.390625 2.046875q-0.625 2.0 -0.625 4.375l0 11.578125l-3.75 0zm28.689224 -2.734375q-2.09375 1.78125 -4.0156097 2.515625q-1.921875 0.71875 -4.125 0.71875q-3.65625 0 -5.609375 -1.78125q-1.953125 -1.78125 -1.953125 -4.546875q0 -1.625 0.734375 -2.96875q0.734375 -1.34375 1.9375 -2.15625q1.203125 -0.8125 2.703125 -1.234375q1.09375 -0.28125 3.328125 -0.5625q4.5312347 -0.53125 6.6874847 -1.28125q0.015625 -0.78125 0.015625 -0.984375q0 -2.296875 -1.0625 -3.234375q-1.4375 -1.265625 -4.2656097 -1.265625q-2.640625 0 -3.90625 0.9375q-1.265625 0.921875 -1.859375 3.265625l-3.671875 -0.5q0.5 -2.34375 1.640625 -3.796875q1.15625 -1.453125 3.3125 -2.234375q2.171875 -0.78125 5.015625 -0.78125q2.8437347 0 4.6093597 0.671875q1.765625 0.671875 2.59375 1.6875q0.84375 1.0 1.171875 2.546875q0.1875 0.953125 0.1875 3.453125l0 5.0q0 5.21875 0.234375 6.609375q0.25 1.390625 0.953125 2.65625l-3.90625 0q-0.59375 -1.171875 -0.75 -2.734375zm-0.3125 -8.359375q-2.046875 0.828125 -6.1249847 1.40625q-2.3125 0.328125 -3.28125 0.75q-0.953125 0.421875 -1.46875 1.21875q-0.515625 0.796875 -0.515625 1.78125q0 1.5 1.125 2.5q1.140625 1.0 3.328125 1.0q2.15625 0 3.8437347 -0.9375q1.6875 -0.953125 2.484375 -2.609375q0.609375 -1.265625 0.609375 -3.75l0 -1.359375zm23.942139 11.09375l0 -2.796875q-2.09375 3.296875 -6.1875 3.296875q-2.640625 0 -4.859375 -1.453125q-2.21875 -1.46875 -3.4375 -4.078125q-1.21875 -2.609375 -1.21875 -6.0q0 -3.3125 1.109375 -6.015625q1.109375 -2.703125 3.3125 -4.140625q2.203125 -1.4375 4.9375 -1.4375q2.0 0 3.5625 0.84375q1.5625 0.84375 2.53125 2.203125l0 -10.953125l3.734375 0l0 30.53125l-3.484375 0zm-11.84375 -11.03125q0 4.234375 1.78125 6.34375q1.796875 2.109375 4.234375 2.109375q2.453125 0 4.171875 -2.015625q1.71875 -2.015625 1.71875 -6.125q0 -4.546875 -1.75 -6.671875q-1.75 -2.125 -4.3125 -2.125q-2.484375 0 -4.171875 2.046875q-1.671875 2.03125 -1.671875 6.4375zm19.832733 -0.03125q0 -6.140625 3.40625 -9.09375q2.859375 -2.46875 6.953125 -2.46875q4.5625 0 7.453125 3.0q2.90625 2.984375 2.90625 8.25q0 4.265625 -1.28125 6.71875q-1.28125 2.453125 -3.734375 3.8125q-2.4375 1.34375 -5.34375 1.34375q-4.640625 0 -7.5 -2.96875q-2.859375 -2.984375 -2.859375 -8.59375zm3.84375 0q0 4.25 1.859375 6.375q1.859375 2.109375 4.65625 2.109375q2.796875 0 4.640625 -2.125q1.859375 -2.125 1.859375 -6.484375q0 -4.09375 -1.859375 -6.203125q-1.859375 -2.125 -4.640625 -2.125q-2.796875 0 -4.65625 2.109375q-1.859375 2.09375 -1.859375 6.34375z" fill-rule="nonzero"/><path fill="#1a1a1a" d="m336.56793 296.2133q-2.84375 16.671875 -6.84375 20.671875q-2.15625 2.15625 -4.5 2.15625q-2.65625 0 -4.15625 -1.5q-4.0 -4.0 -4.0 -9.984375q0 -7.34375 5.171875 -12.5q5.65625 -5.671875 13.828125 -5.671875q7.328125 0 11.484375 4.171875q4.671875 4.65625 4.671875 11.0q0 6.828125 -4.328125 11.15625q-2.828125 2.828125 -8.671875 5.5l-3.5 -3.5q5.84375 -1.828125 9.171875 -5.171875q3.15625 -3.15625 3.15625 -7.65625q0 -5.328125 -3.484375 -8.828125q-3.5 -3.5 -11.0 -3.171875l3.0 1.5q2.0 0.828125 0 1.828125zm-3.84375 -3.15625q-4.328125 1.0 -7.5 4.15625q-4.328125 4.34375 -4.328125 10.671875q0 3.828125 2.5 6.328125q0.5 0.5 1.5 0.5q1.0 0 2.171875 -1.171875q3.828125 -3.828125 5.65625 -20.484375zm45.328125 15.328125q3.828125 -5.171875 5.171875 -17.328125l4.15625 0.65625q1.5 0.34375 -0.15625 1.5q-1.0 10.671875 -6.171875 18.0q-3.828125 5.5 -14.328125 11.0l-3.0 -3.0q9.5 -4.328125 14.328125 -10.828125zm-13.65625 -5.5q-3.0 -6.5 -5.84375 -9.828125l3.671875 -2.0q2.828125 3.5 6.0 9.65625l-3.828125 2.171875zm31.481201 14.15625q20.828125 -4.828125 21.828125 -22.15625l-24.984375 0l0 -3.671875l25.328125 0l2.328125 -0.5l1.828125 1.671875q-0.65625 22.15625 -23.328125 28.328125l-3.0 -3.671875zm38.1687 -17.328125q8.15625 2.34375 16.484375 6.34375l-2.0 3.828125q-8.828125 -4.5 -14.484375 -6.0l0 17.328125l-3.84375 0l0 -33.328125l3.34375 0q2.0 0.171875 0.5 1.328125l0 10.5zm54.144287 -3.5q0 18.171875 -17.5 26.828125l-3.15625 -3.15625q16.15625 -7.34375 16.328125 -22.0l-23.15625 0l0.328125 9.828125l-3.828125 0l-0.5 -13.5l13.15625 0l0 -8.328125l3.328125 0q2.0 0.171875 0.5 1.34375l0 6.984375l12.5 0l2.0 2.0zm21.50061 5.5l0 13.171875l12.15625 0l0 3.15625l-27.15625 0l0 -3.15625l11.65625 0l0 -13.171875l-9.328125 0l0 -3.15625l22.0 0l0 3.15625l-9.328125 0zm34.98706 1.0q0.328125 12.671875 -10.828125 19.671875l-2.828125 -3.171875q9.828125 -5.328125 9.828125 -15.0l0 -7.15625l3.5 0q1.5 0.15625 0.328125 1.15625l0 4.34375q6.0 -4.5 9.171875 -8.84375l-27.171875 1.0l-0.328125 -3.828125l30.328125 -0.828125l1.15625 -0.34375l2.5 3.0q0.5 0.671875 -0.828125 0.5q-5.0 6.5 -12.0 12.171875l-2.828125 -2.671875zm31.1521 -2.328125q2.0 -0.671875 3.84375 -0.671875q2.15625 0 3.5 1.34375q1.0 1.0 1.15625 3.65625q5.0 -1.828125 11.328125 -3.828125l1.171875 4.0q-6.5 1.0 -12.15625 3.171875l0 7.328125l-3.34375 0l0 -6.0q-5.0 2.328125 -6.5 3.828125q-1.828125 1.828125 -1.828125 3.671875q0 1.0 1.0 2.0q1.171875 1.15625 4.5 1.15625l14.0 0l0 3.171875l-14.171875 0q-5.328125 0 -7.484375 -2.171875q-1.671875 -1.65625 -1.671875 -4.15625q0 -2.671875 2.171875 -4.84375q3.328125 -3.328125 9.828125 -5.984375q-0.171875 -2.0 -0.84375 -2.671875q-0.65625 -0.671875 -2.828125 -0.671875q-3.328125 0 -10.15625 6.0l-2.84375 -2.828125q7.84375 -4.828125 10.671875 -10.671875q-4.671875 0.34375 -9.328125 0.671875l-0.671875 -3.328125q6.0 -0.171875 11.328125 -0.5q0.828125 -2.0 2.0 -6.671875l3.171875 0.84375q1.65625 0.65625 0 1.328125q-0.671875 2.15625 -1.5 4.328125q6.0 -0.5 11.5 -1.328125l0.5 3.5q-6.5 0.5 -13.0 1.0q-1.671875 3.328125 -3.34375 5.328125zm34.99109 -0.671875q8.5 -1.65625 8.5 -6.15625l0 -1.84375l3.34375 0.34375q1.15625 0.328125 0 0.828125l0 0.828125q0 6.5 -10.671875 9.5l-1.171875 -3.5zm-3.65625 4.171875q-2.0 -2.171875 -5.171875 -4.171875l2.171875 -3.15625q3.171875 1.328125 5.5 4.15625l-2.5 3.171875zm31.484375 17.15625q-8.328125 -3.828125 -12.15625 -9.328125l0 11.5l-3.328125 0l0 -11.171875q-3.84375 6.171875 -12.0 9.671875l-2.0 -3.671875q8.828125 -3.15625 12.828125 -9.328125l-10.0 0l0 -3.15625l11.171875 0l0 -5.171875l3.15625 0q1.34375 0.171875 0.171875 1.0l0 4.171875l12.0 0l0 3.15625l-10.671875 0q4.171875 5.171875 12.328125 8.328125l-1.5 4.0zm-4.828125 -22.984375q1.828125 0 1.828125 -2.84375l3.671875 0.671875q-0.828125 5.328125 -4.171875 5.328125l-4.984375 0q-3.0 0 -3.0 -2.828125l0 -6.828125l3.15625 0q1.328125 0.15625 0.171875 1.0l0 4.15625q0 1.34375 1.15625 1.34375l2.171875 0zm4.328125 -10.828125l0 6.484375l-3.328125 0l0 -3.328125l-19.5 0l0 4.5l-3.328125 0l0 -7.65625l26.15625 0zm-36.65625 32.984375q3.5 -5.0 5.671875 -12.65625l3.15625 1.828125q-2.15625 7.65625 -4.828125 12.5q0 2.0 -1.328125 0.5l-2.671875 -2.171875zm3.671875 -33.328125q3.5 1.5 5.5 4.171875l-2.5 3.15625q-1.671875 -2.0 -5.171875 -4.15625l2.171875 -3.171875zm39.328125 17.5q7.15625 -6.5 8.984375 -17.828125l3.671875 1.0q1.171875 0.328125 -0.5 1.328125q-0.328125 2.5 -2.328125 7.328125l1.0 0.34375q0.65625 0.5 -0.5 1.15625l0 24.671875l-3.328125 0l0 -20.828125q-2.0 3.15625 -4.84375 5.828125l-2.15625 -3.0zm36.984375 8.15625l-0.5 3.84375q-0.671875 4.828125 -4.828125 4.828125l-11.171875 0q-3.0 0 -3.0 -2.828125l0 -31.328125l3.171875 0q1.671875 0.171875 0.171875 1.0l0 12.328125q6.328125 -2.5 11.65625 -6.5l2.5 3.0q1.171875 1.0 -0.828125 1.0q-7.171875 3.671875 -13.328125 6.171875l0 12.15625q0 1.328125 1.15625 1.328125l8.828125 0q1.84375 0 2.0 -1.65625l0.34375 -4.0l3.828125 0.65625z" fill-rule="nonzero"/><path fill="#1a1a1a" d="m689.46173 319.7133l0 -4.265625l4.265625 0l0 4.265625l-4.265625 0zm14.21875 0l0 -4.265625l4.265625 0l0 4.265625l-4.265625 0zm14.203125 0l0 -4.265625l4.296875 0l0 4.265625l-4.296875 0z" fill-rule="nonzero"/><path fill="#1a1a1a" d="m160.77016 383.7133l-4.21875 0l0 -26.890625q-1.53125 1.453125 -4.0 2.90625q-2.46875 1.453125 -4.4375 2.1875l0 -4.078125q3.53125 -1.671875 6.171875 -4.03125q2.65625 -2.375 3.765625 -4.59375l2.71875 0l0 34.5zm13.1640625 0l0 -4.8125l4.8125 0l0 4.8125l-4.8125 0z" fill-rule="nonzero"/><path fill="#1a1a1a" d="m231.6365 358.05704q0.671875 0.828125 -0.671875 1.328125q-1.328125 6.671875 -4.0 12.171875l4.0 2.65625l-2.5 3.671875l-3.65625 -2.671875q-4.84375 7.0 -13.828125 11.5l-3.84375 -2.828125q10.0 -4.171875 14.328125 -11.0q-4.15625 -2.671875 -8.15625 -4.828125l2.0 -3.0q5.15625 2.328125 8.5 4.328125q2.5 -5.171875 3.0 -9.171875l-12.171875 0q-3.15625 5.671875 -7.828125 10.34375l-3.171875 -2.171875q8.5 -8.828125 11.171875 -18.65625l4.0 1.65625q1.328125 0.671875 -0.671875 1.328125q-0.671875 2.0 -1.671875 3.84375l11.171875 0l1.828125 -0.671875l2.171875 2.171875zm-1.171875 -7.671875q2.84375 2.171875 5.828125 5.5l-2.15625 1.671875q-3.0 -3.171875 -5.828125 -5.5l2.15625 -1.671875zm3.828125 -2.5q2.671875 1.84375 5.5 5.171875l-2.15625 1.828125q-3.0 -3.328125 -5.5 -5.328125l2.15625 -1.671875zm9.339355 23.671875q17.5 -7.34375 26.5 -20.671875l3.15625 2.671875q1.328125 1.0 -1.15625 1.5q-3.171875 4.15625 -8.171875 8.5l0 22.65625l-3.828125 0l0 -19.5q-5.8437347 4.5 -13.67186 8.171875l-2.8281403 -3.328125zm52.986206 -4.84375q0.328125 12.671875 -10.828125 19.671875l-2.828125 -3.171875q9.828125 -5.328125 9.828125 -15.0l0 -7.15625l3.5 0q1.5 0.15625 0.328125 1.15625l0 4.34375q6.0 -4.5 9.171875 -8.84375l-27.171875 1.0l-0.328125 -3.828125l30.328125 -0.828125l1.15625 -0.34375l2.5 3.0q0.5 0.671875 -0.828125 0.5q-5.0 6.5 -12.0 12.171875l-2.828125 -2.671875zm42.99585 12.171875q7.328125 -2.84375 13.484375 -11.328125l2.34375 3.15625q-6.34375 8.671875 -16.0 12.5l-1.328125 0.671875l-2.671875 -2.0l0.328125 -0.84375l0 -26.828125l3.5 0q1.5 0.34375 0.34375 1.34375l0 23.328125zm-22.328125 4.5q8.328125 -8.0 8.328125 -19.828125l0 -7.5l3.5 0q1.5 0.328125 0.328125 1.328125l0 6.0q0 14.0 -8.828125 22.15625l-3.328125 -2.15625zm67.140625 -18.5q1.84375 0.328125 0.34375 1.328125l0 9.671875q4.15625 1.328125 8.65625 3.65625l-2.0 3.171875q-3.65625 -2.171875 -6.65625 -3.171875q-0.5 3.5 -2.171875 5.171875q-2.0 2.0 -5.5 2.0q-4.671875 0 -6.5 -1.828125q-1.671875 -1.671875 -1.671875 -4.34375q0 -2.15625 1.671875 -3.828125q2.171875 -2.171875 6.328125 -2.171875q2.84375 0 4.5 0.5l0 -10.15625l3.0 0zm-17.828125 -4.0q-2.65625 0.328125 -6.65625 0.328125l-0.5 -3.5q4.15625 0 8.328125 -0.328125q0.828125 -3.0 2.0 -8.0l3.0 1.0q1.65625 0.671875 0 1.328125l-1.5 5.34375q2.828125 -0.34375 5.828125 -1.171875l0.828125 3.5q-4.65625 1.0 -7.65625 1.171875q-2.671875 8.5 -7.828125 18.484375l-3.34375 -1.65625q5.171875 -9.171875 7.5 -16.5zm16.0 -5.0q4.671875 1.5 11.15625 4.0l-1.5 3.5q-6.984375 -3.0 -10.984375 -4.171875l1.328125 -3.328125zm-1.171875 22.328125q-2.0 -0.671875 -4.5 -0.671875q-2.65625 0 -3.65625 1.0q-0.84375 0.84375 -0.84375 2.0q0 1.171875 0.671875 1.84375q1.0 1.0 3.5 1.0q2.328125 0 3.328125 -1.0q1.5 -1.5 1.5 -4.171875zm45.33435 -0.5q-7.171875 7.828125 -15.5 7.828125q-6.0 0 -8.828125 -2.828125q-2.171875 -2.171875 -2.171875 -8.328125l0 -22.328125l3.5 0q1.5 0.328125 0.328125 1.328125l0 21.0q0 4.15625 1.5 5.65625q1.828125 1.84375 5.5 1.84375q6.5 0 13.171875 -7.34375l2.5 3.171875z" fill-rule="nonzero"/><path fill="#1a1a1a" d="m183.3307 434.93454q-1.703125 1.4375 -3.265625 2.03125q-1.5625 0.59375 -3.359375 0.59375q-2.953125 0 -4.546875 -1.4375q-1.59375 -1.453125 -1.59375 -3.703125q0 -1.328125 0.59375 -2.40625q0.609375 -1.09375 1.578125 -1.75q0.984375 -0.671875 2.203125 -1.015625q0.890625 -0.234375 2.703125 -0.453125q3.6875 -0.4375 5.421875 -1.046875q0.03125 -0.625 0.03125 -0.796875q0 -1.859375 -0.875 -2.625q-1.15625 -1.03125 -3.46875 -1.03125q-2.140625 0 -3.171875 0.765625q-1.015625 0.75 -1.515625 2.65625l-2.96875 -0.40625q0.40625 -1.90625 1.328125 -3.078125q0.9375 -1.1875 2.6875 -1.8125q1.765625 -0.640625 4.078125 -0.640625q2.3125 0 3.75 0.546875q1.4375 0.53125 2.109375 1.359375q0.6875 0.8125 0.953125 2.0625q0.15625 0.78125 0.15625 2.8125l0 4.0625q0 4.25 0.1875 5.375q0.203125 1.125 0.765625 2.15625l-3.171875 0q-0.484375 -0.953125 -0.609375 -2.21875zm-0.265625 -6.796875q-1.65625 0.671875 -4.96875 1.140625q-1.875 0.28125 -2.65625 0.625q-0.78125 0.328125 -1.203125 0.984375q-0.421875 0.640625 -0.421875 1.4375q0 1.21875 0.921875 2.03125q0.921875 0.8125 2.703125 0.8125q1.75 0 3.125 -0.765625q1.375 -0.765625 2.015625 -2.109375q0.484375 -1.03125 0.484375 -3.046875l0 -1.109375zm8.66478 9.015625l0 -3.46875l3.46875 0l0 3.46875l-3.46875 0z" fill-rule="nonzero"/><path fill="#1a1a1a" d="m226.82722 434.9814q14.75 -3.25 22.1875 -15.296875l2.4375 2.4375q-6.890625 11.109375 -21.375 15.703125q-0.40625 1.625 -1.359375 0.140625l-1.890625 -2.984375zm-0.953125 -16.375q3.390625 1.765625 6.90625 4.328125l-2.171875 2.84375q-4.0625 -2.96875 -6.765625 -4.328125l2.03125 -2.84375zm3.796875 -7.984375q3.640625 2.03125 6.890625 4.328125l-1.890625 2.84375q-3.65625 -2.578125 -6.765625 -4.328125l1.765625 -2.84375zm51.839584 10.828125q-7.171875 14.890625 -24.09375 15.703125q-0.671875 1.765625 -1.359375 0.265625l-1.0781097 -3.515625q17.593735 -0.40625 23.687485 -14.484375l2.84375 2.03125zm-19.09375 0q-3.640625 -3.390625 -6.8906097 -5.546875l2.2968597 -2.84375q2.84375 1.75 7.171875 5.8125l-2.578125 2.578125zm46.85559 -7.578125q1.078125 0 1.75 -0.6875q0.671875 -0.671875 0.671875 -1.75q0 -1.078125 -0.671875 -1.765625q-0.671875 -0.671875 -1.75 -0.671875q-1.09375 0 -1.765625 0.671875q-0.671875 0.6875 -0.671875 1.765625q0 1.078125 0.671875 1.75q0.671875 0.6875 1.765625 0.6875zm0 1.34375q-1.625 0 -2.71875 -1.078125q-1.078125 -1.078125 -1.078125 -2.703125q0 -1.625 1.078125 -2.703125q1.09375 -1.09375 2.71875 -1.09375q1.609375 0 2.703125 1.09375q1.078125 1.078125 1.078125 2.703125q0 1.625 -1.078125 2.703125q-1.09375 1.078125 -2.703125 1.078125zm-24.234375 1.765625l0 -2.984375l20.03125 0l3.515625 2.578125q-0.671875 16.375 -18.546875 21.390625l-2.4375 -2.984375q16.921875 -3.921875 17.734375 -18.0l-20.296875 0zm49.141846 16.25q5.953125 -2.3125 10.953125 -9.203125l1.90625 2.5625q-5.15625 7.046875 -13.0 10.15625l-1.078125 0.546875l-2.171875 -1.625l0.265625 -0.6875l0 -21.796875l2.84375 0q1.21875 0.28125 0.28125 1.09375l0 18.953125zm-18.140625 3.65625q6.765625 -6.5 6.765625 -16.109375l0 -6.09375l2.84375 0q1.21875 0.265625 0.265625 1.078125l0 4.875q0 11.375 -7.171875 18.0l-2.703125 -1.75zm43.578125 -18.28125l-2.703125 0l0 6.359375l2.4375 -0.8125l0.546875 2.3125l-2.984375 1.078125l0 10.5625q0 2.296875 -2.15625 2.296875l-2.171875 0l-0.546875 -2.578125l1.765625 0q0.40625 0 0.40625 -0.40625l0 -9.0625l-2.4375 0.671875q-0.140625 0.953125 -0.671875 0.40625l-0.546875 -3.109375l3.65625 -0.8125l0 -6.90625l-3.25 0l0 -2.578125l3.25 0l0 -6.890625l2.578125 0q1.078125 0.125 0.125 0.8125l0 6.078125l2.703125 0l0 2.578125zm17.203125 -9.203125l0 7.3125l-13.40625 0l0 -7.3125l13.40625 0zm-2.296875 2.15625l-8.8125 0l0 2.984375l8.8125 0l0 -2.984375zm-5.28125 6.90625l0 7.453125l-8.53125 0l0 -7.453125l8.53125 0zm-2.3125 2.171875l-3.921875 0l0 3.109375l3.921875 0l0 -3.109375zm10.421875 0l-4.046875 0l0 3.109375l4.046875 0l0 -3.109375zm2.3125 -2.171875l0 7.453125l-8.671875 0l0 -7.453125l8.671875 0zm-10.96875 10.15625l0 -1.890625l2.578125 0q1.078125 0.140625 0.125 0.8125l0 1.078125l9.484375 0l0 2.171875l-9.078125 0q4.46875 3.78125 9.75 5.546875l-1.21875 2.578125q-5.28125 -2.3125 -8.9375 -6.09375l0 7.578125l-2.703125 0l0 -7.046875q-3.515625 4.0625 -9.203125 5.96875l-0.953125 -2.4375q7.046875 -2.578125 9.484375 -6.09375l-8.53125 0l0 -2.171875l9.203125 0zm46.5625 -13.53125l0 2.5625l-9.734375 0l0 5.015625l8.515625 0l0 2.578125l-8.515625 0l0 4.453125l9.0625 0l0 2.578125l-9.0625 0l0 7.578125l-2.71875 0l0 -22.203125l-1.34375 0q-2.171875 4.609375 -4.609375 7.046875l-2.578125 -1.890625q5.421875 -5.6875 6.78125 -13.40625l2.84375 0.8125q0.8125 0.40625 -0.140625 0.671875q-0.265625 1.359375 -1.359375 4.203125l12.859375 0zm-30.3125 9.46875q5.953125 -6.90625 7.84375 -14.890625l2.984375 0.953125q0.8125 0.53125 -0.140625 0.671875q-0.953125 3.109375 -2.703125 6.765625l0.8125 0.28125q0.53125 0.53125 -0.40625 0.671875l0 20.84375l-2.703125 0l0 -17.59375q-1.5 2.4375 -3.53125 4.609375l-2.15625 -2.3125z" fill-rule="nonzero"/><path fill="#1a1a1a" d="m174.40883 484.9933l-2.828125 0l0 -24.8125l3.046875 0l0 8.859375q1.9375 -2.421875 4.921875 -2.421875q1.65625 0 3.140625 0.671875q1.484375 0.65625 2.4375 1.875q0.953125 1.203125 1.5 2.921875q0.546875 1.703125 0.546875 3.65625q0 4.609375 -2.296875 7.140625q-2.28125 2.515625 -5.484375 2.515625q-3.171875 0 -4.984375 -2.65625l0 2.25zm-0.03125 -9.125q0 3.234375 0.875 4.671875q1.4375 2.359375 3.890625 2.359375q2.0 0 3.453125 -1.734375q1.453125 -1.734375 1.453125 -5.171875q0 -3.515625 -1.390625 -5.1875q-1.390625 -1.6875 -3.375 -1.6875q-2.0 0 -3.453125 1.734375q-1.453125 1.734375 -1.453125 5.015625zm17.35228 9.125l0 -3.46875l3.46875 0l0 3.46875l-3.46875 0z" fill-rule="nonzero"/><path fill="#1a1a1a" d="m243.0616 467.52454l-18.8125 0l0 -2.96875l21.9375 0l0 19.359375l-3.125 0l0 -1.5l-18.8125 0l0 -2.96875l18.8125 0l0 -11.921875zm24.913559 5.15625q5.828125 4.453125 11.5 10.28125l-2.703125 2.296875q-5.6875 -5.953125 -10.96875 -10.015625q-5.28125 5.6875 -12.04686 10.15625l-2.5625 -2.296875q14.343735 -9.34375 18.406235 -18.6875l-14.749985 0.953125l-0.40625 -3.25l15.70311 -0.6875l1.625 -0.40625l2.15625 2.171875q0.953125 0.953125 -0.53125 1.21875q-2.578125 4.46875 -5.421875 8.265625zm20.58435 -3.9375q6.625 1.90625 13.390625 5.15625l-1.625 3.109375q-7.171875 -3.65625 -11.765625 -4.875l0 14.078125l-3.125 0l0 -27.078125l2.71875 0q1.625 0.140625 0.40625 1.078125l0 8.53125zm31.394287 10.5625l3.9375 -1.625l0.53125 2.296875l-7.3125 3.125q-0.125 0.9375 -0.671875 0.40625l-0.953125 -2.984375l1.765625 -0.40625l0 -21.390625l2.171875 0.546875q2.15625 -0.546875 4.328125 -1.484375l1.21875 2.828125q0.265625 0.953125 -0.8125 0.28125q-2.296875 0.40625 -4.203125 0.671875l0 17.734375zm-7.703125 6.5q0 2.171875 -2.171875 2.171875l-2.4375 0l-0.265625 -2.578125l1.625 0q0.53125 0 0.53125 -0.546875l0 -8.921875l-2.5625 0.9375q-0.28125 0.953125 -0.546875 0.40625l-0.546875 -3.109375l3.65625 -0.953125l0 -6.625l-3.515625 0l0 -2.578125l3.515625 0l0 -7.03125l2.578125 0q1.078125 0.125 0.140625 0.8125l0 6.21875l3.109375 0l0 2.578125l-3.109375 0l0 6.09375l3.375 -1.09375l0.40625 2.3125l-3.78125 1.34375l0 10.5625zm23.40625 -26.53125l0 21.25q0 2.171875 -2.15625 2.171875l-2.4375 0l-0.6875 -2.578125l2.03125 0q0.546875 0 0.546875 -0.546875l0 -17.734375l-4.59375 0l0 26.0l-2.71875 0l0 -28.5625l10.015625 0zm30.59375 25.859375q0.546875 0 0.546875 -0.546875l0 -26.390625l2.578125 0q1.078125 0.125 0.125 0.796875l0 26.8125q0 1.890625 -1.890625 1.890625l-3.109375 0l-0.671875 -2.5625l2.421875 0zm-20.703125 -23.15625l3.109375 0l0 -4.734375l2.578125 0q1.078125 0.140625 0.125 0.8125l0 3.921875l6.09375 0l0 2.578125l-6.09375 0l0 3.515625l8.40625 0l0 2.578125l-8.40625 0l0 2.5625l6.375 0l0 10.015625q0 1.90625 -1.90625 1.90625l-2.03125 0l-0.53125 -2.578125l1.21875 0q0.53125 0 0.53125 -0.546875l0 -6.21875l-3.65625 0l0 12.046875l-2.703125 0l0 -12.046875l-3.25 0l0 9.34375l-2.703125 0l0 -11.921875l5.953125 0l0 -2.5625l-8.53125 0l0 -2.578125l8.53125 0l0 -3.515625l-4.1875 0q-0.8125 1.484375 -1.765625 2.84375l-2.171875 -1.5q2.03125 -2.84375 3.9375 -7.4375l2.4375 0.8125q0.53125 0.53125 -0.40625 0.671875l-0.953125 2.03125zm15.4375 18.8125l0 -20.171875l2.5625 0q1.078125 0.140625 0.140625 0.8125l0 19.359375l-2.703125 0z" fill-rule="nonzero"/><path fill="#1a1a1a" d="m168.80489 536.9039l0 3.609375l-20.171875 0q-0.046875 -1.359375 0.4375 -2.609375q0.765625 -2.0625 2.453125 -4.0625q1.703125 -2.0 4.921875 -4.609375q4.96875 -4.09375 6.71875 -6.46875q1.75 -2.390625 1.75 -4.515625q0 -2.234375 -1.59375 -3.765625q-1.59375 -1.53125 -4.15625 -1.53125q-2.703125 0 -4.328125 1.625q-1.625 1.625 -1.640625 4.5l-3.859375 -0.390625q0.390625 -4.3125 2.96875 -6.5625q2.59375 -2.2655945 6.9375 -2.2655945q4.40625 0 6.96875 2.4374695q2.5625 2.4375 2.5625 6.03125q0 1.84375 -0.75 3.609375q-0.75 1.765625 -2.5 3.734375q-1.734375 1.953125 -5.78125 5.359375q-3.359375 2.84375 -4.328125 3.859375q-0.953125 1.0 -1.578125 2.015625l14.96875 0zm6.1296234 3.609375l0 -4.265625l4.265625 0l0 4.265625l-4.265625 0z" fill-rule="nonzero"/><path fill="#1a1a1a" d="m203.98026 515.6851l0 -3.671875l25.15625 0l2.5 -0.49996948l1.828125 1.6718445q-0.65625 22.0 -23.328125 28.328125l-3.0 -3.671875q20.828125 -4.65625 21.828125 -22.15625l-24.984375 0zm26.15625 -4.1718445q-2.171875 -2.328125 -4.328125 -4.15625l2.0 -2.0q2.328125 1.828125 4.5 4.328125l-2.171875 1.828125zm6.0 -0.5q-2.671875 -2.984375 -5.0 -4.984375l2.0 -1.671875q2.65625 2.0 5.0 4.828125l-2.0 1.828125zm12.157486 25.671844q15.32811 -2.84375 22.32811 -15.5l2.828125 2.828125q-7.984375 14.0 -26.656235 17.171875l-2.6562653 -2.0l0.328125 -1.0l0 -27.671844l3.6718903 0q1.5 0.171875 0.15625 1.171875l0 24.99997zm29.496323 -9.828125l0 -3.671875l37.15625 0l0 3.671875l-37.15625 0zm77.818115 0.65625l-15.5 1.671875l3.171875 13.5l-3.671875 0.828125l-3.171875 -13.828125l-16.984375 2.0l-0.5 -3.5l16.65625 -1.828125l-1.671875 -7.84375l-11.328125 1.34375l-0.65625 -3.5l10.984375 -1.171875l-1.65625 -7.6562195l3.5 -0.671875q1.5 -0.171875 0.5 1.171875l1.328125 6.6562195l12.171875 -1.671875l0.65625 3.5l-11.828125 1.5l1.671875 7.84375l15.65625 -1.84375l0.671875 3.5zm3.9899902 12.328125q3.0 -1.15625 6.0 -3.0l0 -10.828125l-5.0 0l0 -3.15625l8.328125 0l0 13.828125q1.84375 3.15625 9.34375 3.15625l20.328125 0l-0.84375 3.171875l-21.484375 0q-5.671875 0 -9.171875 -4.0q-2.0 2.0 -5.65625 4.671875l-1.84375 -3.84375zm6.0 -31.81247q3.328125 2.328125 5.171875 5.1562195l-2.828125 2.828125q-2.5 -3.328125 -5.171875 -5.4999695l2.828125 -2.484375zm16.171875 27.81247l-2.84375 0l0 -10.484375l11.0 0l0 8.484375l-8.15625 0l0 2.0zm5.328125 -4.65625l0 -3.171875l-5.328125 0l0 3.171875l5.328125 0zm9.328125 3.65625q0 2.84375 -2.828125 2.84375l-3.0 0l-0.34375 -3.171875l2.171875 0q0.671875 0 0.671875 -0.671875l0 -10.828125l-17.671875 0l0 15.0l-3.328125 0l0 -18.15625l3.671875 0l0 -12.1718445l17.328125 0l0 12.1718445l3.328125 0l0 14.984375zm-6.171875 -18.828125l-4.984375 0l0 3.84375l4.984375 0l0 -3.84375zm0 -2.65625l0 -2.9999695l-11.65625 0l0 9.4999695l3.828125 0l0 -6.5l7.828125 0zm33.0 -3.6718445q-2.671875 0.828125 -6.5 1.171875l0 3.3280945l10.0 0l0 2.671875l-3.671875 0l0 4.0l4.671875 0l0 2.65625l-4.671875 0l0 4.0l3.671875 0l0 2.671875l-10.0 0l0 1.0q5.328125 1.828125 9.671875 5.328125l-1.84375 3.5q-4.5 -4.0 -7.828125 -5.671875l0 10.0l-2.828125 0l0 -10.15625q-3.671875 5.0 -9.171875 7.65625l-1.828125 -3.5q6.828125 -2.828125 10.328125 -8.15625l-9.328125 0l0 -2.671875l3.671875 0l0 -4.0l-5.0 0l0 -2.65625l5.0 0l0 -4.0l-3.84375 0l0 -2.671875l10.171875 0l0 -2.8280945q-4.671875 0.328125 -8.328125 0.328125l-0.671875 -3.171875q10.5 0 17.328125 -1.984375l2.328125 2.65625q0.34375 0.671875 -1.328125 0.5zm12.328125 30.99997q0.671875 0 0.671875 -0.671875l0 -33.328094l3.15625 0q1.34375 0.171875 0.171875 1.0l0 33.99997q0 2.15625 -2.328125 2.15625l-4.171875 0l-0.65625 -3.15625l3.15625 0zm-3.0 -29.328094q1.328125 0.15625 0.171875 0.9999695l0 23.484375l-3.328125 0l0 -24.484344l3.15625 0zm-12.328125 16.15622l0 -4.0l-3.5 0l0 4.0l3.5 0zm-6.328125 0l0 -4.0l-3.5 0l0 4.0l3.5 0zm0 -6.65625l0 -4.0l-3.5 0l0 4.0l3.5 0zm6.328125 0l0 -4.0l-3.5 0l0 4.0l3.5 0zm63.3125 4.328125l-0.5 3.0q-0.65625 4.0 -4.328125 2.65625q-3.828125 -1.328125 -6.328125 -4.15625q-2.0 2.5 -6.5 5.15625l-2.171875 -2.828125q4.171875 -2.15625 6.671875 -5.0q-2.828125 -5.5 -3.328125 -11.328125l-15.5 0l0 7.828125q0 7.34375 -3.171875 11.171875l-3.0 -2.0q2.84375 -3.5 2.84375 -8.828125l0 -10.8437195l18.65625 0l-0.171875 -4.328125l3.171875 0q1.5 0.171875 0.171875 1.0l0.15625 3.328125l5.0 0q-1.15625 -0.828125 -3.15625 -1.984375l2.5 -2.0q2.484375 1.15625 3.984375 2.328125l-2.0 1.65625l5.671875 0l0 2.6718445l-11.828125 0q0.671875 5.0 2.5 8.828125q1.828125 -2.828125 3.15625 -6.828125l3.0 1.328125q1.171875 0.84375 -0.328125 1.171875q-1.5 4.0 -4.0 7.171875q1.828125 2.0 3.828125 2.828125q1.171875 0.5 1.34375 -1.171875l0.15625 -1.828125l3.5 1.0zm-30.15625 8.0q0.828125 0.5 -0.328125 1.15625q-1.171875 5.0 -2.828125 9.0l-3.5 -1.828125q1.828125 -3.5 3.328125 -9.171875l3.328125 0.84375zm26.828125 8.828125q-2.828125 -4.5 -5.828125 -7.5l2.5 -2.0q3.328125 2.828125 6.328125 6.828125l-3.0 2.671875zm-16.65625 -11.0q2.828125 2.5 5.15625 5.671875l-3.0 2.15625q-2.15625 -3.15625 -4.828125 -5.828125l2.671875 -2.0zm2.0 -11.15625l0 7.328125l-9.0 0l0 1.328125l-2.828125 0l0 -8.65625l11.828125 0zm-12.5 -4.671875l13.0 0l0 2.671875l-13.0 0l0 -2.671875zm3.5 10.0l6.15625 0l0 -3.328125l-6.15625 0l0 3.328125zm1.828125 6.15625q1.328125 0.171875 0.171875 1.0l0 6.84375q0 1.328125 1.15625 1.328125l10.171875 0q1.328125 0 1.5 -1.328125l0.328125 -2.171875l3.34375 0.328125l-0.671875 3.5q-0.5 2.84375 -3.828125 2.84375l-12.34375 0q-3.0 0 -3.0 -2.84375l0 -9.5l3.171875 0zm40.484375 -10.15625q2.0 -0.671875 3.84375 -0.671875q2.15625 0 3.5 1.34375q1.0 1.0 1.15625 3.65625q5.0000305 -1.828125 11.3281555 -3.828125l1.171875 4.0q-6.5 1.0 -12.1562805 3.171875l0 7.328125l-3.34375 0l0 -6.0q-5.0 2.328125 -6.5 3.828125q-1.828125 1.828125 -1.828125 3.671875q0 1.0 1.0 2.0q1.171875 1.15625 4.5 1.15625l14.0000305 0l0 3.171875l-14.1719055 0q-5.328125 0 -7.484375 -2.171875q-1.671875 -1.65625 -1.671875 -4.15625q0 -2.671875 2.171875 -4.84375q3.328125 -3.328125 9.828125 -5.984375q-0.171875 -2.0 -0.84375 -2.671875q-0.65625 -0.671875 -2.828125 -0.671875q-3.328125 0 -10.15625 6.0l-2.84375 -2.828125q7.84375 -4.828125 10.671875 -10.671875q-4.671875 0.34375 -9.328125 0.671875l-0.671875 -3.328125q6.0 -0.171875 11.328125 -0.5q0.828125 -1.9999695 2.0 -6.6718445l3.171875 0.84375q1.65625 0.65625 0 1.328125q-0.671875 2.15625 -1.5 4.3280945q6.0 -0.5 11.5000305 -1.3280945l0.5 3.4999695q-6.5000305 0.5 -13.0000305 1.0q-1.671875 3.328125 -3.34375 5.328125zm29.006744 -0.671875q-1.34375 1.671875 -2.34375 2.5l-1.65625 -2.828125q5.0 -5.171875 7.828125 -14.1562195l3.0 0.328125q0.5 0.5 -0.34375 1.0l-0.5 1.15625l4.171875 0l0.671875 -0.828125l3.0 2.0l-0.84375 1.0l-2.828125 5.3280945l4.5 0l0 25.5q0 2.828125 -2.5 2.828125l-3.671875 0l-0.65625 -3.15625l3.328125 0q0.671875 0 0.671875 -0.671875l0 -7.5l-9.0 0q0 6.828125 -3.5 11.0l-2.5 -2.0q3.171875 -3.5 3.171875 -11.0l0 -10.5zm24.65625 -3.15625l3.328125 0q1.171875 0 1.328125 -1.0l0.5 -5.6718445l-4.984375 0q-0.671875 7.8280945 -7.84375 10.8280945l-1.328125 -2.828125q5.828125 -2.328125 6.171875 -7.9999695l-5.34375 0l0 -2.65625l16.5 0l-0.828125 9.6562195q-0.171875 2.828125 -2.84375 2.828125l-4.328125 0l-0.328125 -3.15625zm2.5 18.984375l0 7.84375l-2.828125 0l0 -7.84375l-8.171875 0l0 -3.15625l8.171875 0l0 -3.828125l-3.671875 0l-1.828125 2.984375l-2.5 -1.828125q2.65625 -3.5 3.328125 -8.0l3.0 0.5q0.5 0.5 -0.328125 1.0l-0.671875 2.171875l2.671875 0l0 -4.171875l2.65625 0q1.328125 0.171875 0.171875 1.0l0 3.171875l5.828125 0l0 3.171875l-5.828125 0l0 3.828125l7.328125 0l0 3.15625l-7.328125 0zm-22.0 -25.15622q-0.65625 1.8280945 -2.328125 4.8280945l4.5 0l2.15625 -4.8280945l-4.328125 0zm3.328125 19.15622l3.34375 0l0 -4.65625l-3.34375 0l0 4.65625zm-2.328125 0l0 -4.65625l-3.328125 0l0 4.65625l3.328125 0zm-3.328125 -11.65625l0 4.328125l3.328125 0l0 -4.328125l-3.328125 0zm5.65625 0l0 4.328125l3.34375 0l0 -4.328125l-3.34375 0zm42.0 11.328125q-3.328125 6.5 -6.828125 12.0q0.328125 1.671875 -0.5 0.828125l-3.5 -3.0q3.0 -3.5 7.828125 -12.15625l3.0 2.328125zm17.65625 -15.65625q1.671875 -2.4999695 3.828125 -6.9999695l3.34375 1.5q1.15625 0.828125 -0.171875 0.828125q-2.671875 4.8280945 -3.828125 6.3280945l-3.171875 -1.65625zm-22.328125 10.15625q-2.5 -3.0 -5.15625 -4.828125l2.0 -2.5q3.0 1.671875 5.65625 4.671875l-2.5 2.65625zm25.328125 10.0l-14.15625 0l0 9.328125l-3.34375 0l0 -26.65625l8.671875 0l0 -10.9999695l3.171875 0q1.328125 0.171875 0.15625 1.0l0 9.9999695l8.828125 0l0 24.0q0 2.328125 -2.328125 2.328125l-3.5 0l-0.5 -3.171875l2.328125 0q0.671875 0 0.671875 -0.65625l0 -5.171875zm-14.15625 -18.328125q-1.5 -3.5 -3.34375 -6.3280945l3.171875 -1.828125q2.328125 2.984375 3.671875 6.4843445l-3.5 1.671875zm0 4.171875l0 3.828125l14.15625 0l0 -3.828125l-14.15625 0zm0 10.984375l14.15625 0l0 -3.984375l-14.15625 0l0 3.984375zm-8.84375 -16.328125q-2.484375 -2.65625 -5.484375 -4.4999695l1.828125 -2.484375q3.5 1.828125 5.828125 4.4843445l-2.171875 2.5z" fill-rule="nonzero"/><path fill="#1a1a1a" d="m149.13301 591.33075l3.75 -0.5q0.640625 3.1875 2.1875 4.59375q1.5625 1.40625 3.78125 1.40625q2.640625 0 4.46875 -1.828125q1.828125 -1.84375 1.828125 -4.546875q0 -2.578125 -1.6875 -4.25q-1.6875 -1.6875 -4.296875 -1.6875q-1.0625 0 -2.640625 0.421875l0.421875 -3.296875q0.375 0.046875 0.59375 0.046875q2.390625 0 4.3125 -1.25q1.921875 -1.25 1.921875 -3.859375q0 -2.0625 -1.40625 -3.40625q-1.390625 -1.359375 -3.59375 -1.359375q-2.1875 0 -3.65625 1.375q-1.453125 1.375 -1.859375 4.125l-3.75 -0.671875q0.6875 -3.765625 3.125 -5.828125q2.4375 -2.078125 6.046875 -2.078125q2.5 0 4.609375 1.078125q2.109375 1.0625 3.21875 2.921875q1.109375 1.84375 1.109375 3.9375q0 1.96875 -1.0625 3.59375q-1.0625 1.625 -3.140625 2.59375q2.703125 0.625 4.203125 2.59375q1.5 1.96875 1.5 4.921875q0 4.0 -2.921875 6.78125q-2.90625 2.78125 -7.359375 2.78125q-4.015625 0 -6.671875 -2.390625q-2.65625 -2.40625 -3.03125 -6.21875zm25.801498 8.0625l0 -4.265625l4.265625 0l0 4.265625l-4.265625 0z" fill-rule="nonzero"/><path fill="#1a1a1a" d="m205.10526 599.39325l0 -30.53125l11.515625 0q3.03125 0 4.640625 0.28125q2.25 0.375 3.765625 1.4375q1.53125 1.046875 2.453125 2.953125q0.921875 1.890625 0.921875 4.15625q0 3.890625 -2.484375 6.59375q-2.46875 2.703125 -8.953125 2.703125l-7.828125 0l0 12.40625l-4.03125 0zm4.03125 -16.015625l7.890625 0q3.921875 0 5.5625 -1.453125q1.65625 -1.46875 1.65625 -4.109375q0 -1.921875 -0.96875 -3.28125q-0.96875 -1.359375 -2.5625 -1.796875q-1.015625 -0.28125 -3.765625 -0.28125l-7.8125 0l0 10.921875zm24.49826 16.015625l0 -30.53125l22.07814 0l0 3.59375l-18.031265 0l0 9.359375l16.89064 0l0 3.578125l-16.89064 0l0 10.390625l18.734375 0l0 3.609375l-22.78125 0z" fill-rule="nonzero"/><path fill="#1a1a1a" d="m267.88303 599.5651q16.15625 -4.171875 18.15625 -17.5l-25.328125 0l0 -3.671875l25.5 0l1.5 -0.5l3.0 1.84375q0.984375 0.828125 -0.34375 1.5q-2.65625 16.65625 -19.5 21.65625l-2.984375 -3.328125zm18.828125 -27.0l-23.0 0l0 -3.671875l23.0 0l0 3.671875zm8.991577 14.671875q17.5 -7.34375 26.5 -20.671875l3.15625 2.671875q1.328125 1.0 -1.15625 1.5q-3.171875 4.15625 -8.171875 8.5l0 22.65625l-3.828125 0l0 -19.5q-5.84375 4.5 -13.671875 8.171875l-2.828125 -3.328125zm67.31433 -7.171875q-8.828125 18.328125 -29.65625 19.328125q-0.828125 2.171875 -1.671875 0.328125l-1.328125 -4.328125q21.65625 -0.5 29.15625 -17.828125l3.5 2.5zm-23.5 0q-4.484375 -4.171875 -8.484375 -6.828125l2.828125 -3.5q3.5 2.15625 8.828125 7.15625l-3.171875 3.171875zm61.652466 -6.828125q-5.828125 0 -9.15625 1.15625q-3.671875 1.34375 -6.828125 4.5q-3.171875 3.171875 -3.171875 8.171875q0 4.0 2.5 6.5q3.328125 3.328125 12.828125 3.65625l-1.328125 3.671875q-9.828125 -0.5 -13.671875 -4.328125q-3.828125 -3.84375 -3.828125 -9.328125q0 -7.84375 6.171875 -12.34375q-7.84375 1.171875 -16.0 2.34375l-1.0 -3.84375q16.328125 -1.15625 32.828125 -4.0l0.65625 3.84375zm-3.65625 13.0q-3.671875 -2.671875 -6.328125 -4.171875l1.65625 -2.0q2.5 1.5 6.328125 4.171875l-1.65625 2.0zm3.328125 -4.0q-4.0 -2.84375 -6.328125 -4.171875l1.671875 -2.0q2.328125 1.328125 6.328125 4.171875l-1.671875 2.0zm25.83435 -6.34375q-2.84375 16.671875 -6.84375 20.671875q-2.15625 2.15625 -4.5 2.15625q-2.65625 0 -4.15625 -1.5q-4.0 -4.0 -4.0 -9.984375q0 -7.34375 5.171875 -12.5q5.65625 -5.671875 13.828125 -5.671875q7.328125 0 11.484375 4.171875q4.671875 4.65625 4.671875 11.0q0 6.828125 -4.328125 11.15625q-2.828125 2.828125 -8.671875 5.5l-3.5 -3.5q5.84375 -1.828125 9.171875 -5.171875q3.15625 -3.15625 3.15625 -7.65625q0 -5.328125 -3.484375 -8.828125q-3.5 -3.5 -11.0 -3.171875l3.0 1.5q2.0 0.828125 0 1.828125zm-3.84375 -3.15625q-4.328125 1.0 -7.5 4.15625q-4.328125 4.34375 -4.328125 10.671875q0 3.828125 2.5 6.328125q0.5 0.5 1.5 0.5q1.0 0 2.171875 -1.171875q3.828125 -3.828125 5.65625 -20.484375zm53.15625 -3.5l-6.5 0l0 3.328125q0 6.828125 -6.0 9.671875l-1.828125 -3.0q4.5 -2.171875 4.5 -7.171875l0 -6.0l13.15625 0l0 9.828125q0 1.34375 1.171875 1.34375l2.171875 0q0.65625 0 0.65625 -0.671875l0 -3.328125l3.34375 0.828125l0 3.328125q0 3.0 -3.5 3.0l-4.171875 0q-3.0 0 -3.0 -2.828125l0 -8.328125zm1.0 25.984375q3.5 2.171875 10.0 4.0l-1.328125 3.34375q-6.84375 -2.171875 -11.0 -5.0q-5.0 3.828125 -12.0 5.65625l-1.328125 -3.328125q6.828125 -1.671875 10.828125 -4.328125q-3.671875 -3.671875 -5.671875 -8.828125l-2.5 0l0 -3.171875l15.828125 0l0.671875 -0.671875l2.5 2.171875q1.171875 0.828125 -0.328125 1.0q-1.84375 5.328125 -5.671875 9.15625zm-7.5 -8.484375q2.171875 3.828125 5.0 6.65625q2.84375 -2.828125 4.328125 -6.65625l-9.328125 0zm-11.328125 -21.5q1.328125 0.171875 0.171875 1.0l0 6.328125l5.15625 0l0 3.171875l-5.15625 0l0 8.65625l3.328125 -1.328125l1.171875 3.0l-4.5 1.828125l0 12.671875q0 2.65625 -2.671875 2.65625l-3.328125 0l-0.5 -3.15625l2.5 0q0.671875 0 0.671875 -0.671875l0 -10.328125l-3.671875 1.5q-0.171875 1.15625 -0.828125 0.5l-1.34375 -3.828125l5.84375 -1.84375l0 -9.65625l-5.84375 0l0 -3.171875l5.84375 0l0 -7.328125l3.15625 0zm68.984406 14.328125q-4.328125 0.5 -8.328125 0.828125l0 5.671875q0 9.65625 -5.671875 16.65625l-3.5000305 -2.0q5.8437805 -6.65625 5.8437805 -15.328125l0 -4.65625q-6.3437805 0.5 -12.0000305 0.5l0 -3.671875q5.65625 0.171875 12.0000305 -0.328125l0 -10.171875l3.0 0q1.5 0.328125 0.328125 1.328125l0 8.671875q4.15625 -0.328125 7.828125 -1.0l0.5 3.5zm-29.65628 6.0q0 6.0 1.328125 12.65625l-3.65625 0.671875q-1.171875 -6.0 -1.171875 -13.328125q0 -9.671875 1.671875 -16.828125l3.15625 0.828125q2.171875 0.5 0.171875 1.5q-1.5 7.171875 -1.5 14.5zm26.15628 -21.828125q2.828125 1.5 6.171875 4.0l-1.5 2.328125q-3.5 -2.671875 -6.171875 -4.0l1.5 -2.328125zm-2.0 4.15625q2.671875 1.171875 6.171875 4.0l-1.5 2.34375q-3.84375 -2.84375 -6.171875 -4.0l1.5 -2.34375zm19.66687 12.171875l0 9.5q0 1.328125 1.15625 1.328125l2.84375 0q2.65625 0 3.15625 -5.15625l3.34375 1.328125q-1.0 7.0 -5.34375 7.0l-5.65625 0q-2.828125 0 -2.828125 -2.84375l0 -10.484375l-4.34375 1.0l-0.65625 -3.671875l5.0 -1.0l0 -11.0l3.15625 0q1.671875 0.34375 0.171875 1.328125l0 9.0l8.65625 -2.15625l0.84375 3.5l-9.5 2.328125zm23.484375 15.0q0.84375 -13.5 0.84375 -22.828125l-6.328125 0q0 15.5 -2.34375 19.984375q-3.65625 7.171875 -13.0 10.34375l-1.65625 -3.671875q9.15625 -3.0 11.65625 -9.0q1.84375 -4.328125 1.84375 -17.65625l-6.5 0l0 -3.671875l19.984375 0q0 12.328125 -1.0 28.0q-0.328125 5.5 -5.0 5.5l-4.484375 0l-0.34375 -3.671875l4.0 0q2.171875 0 2.328125 -3.328125zm36.5 -14.671875q0.171875 -3.15625 -1.828125 -3.15625q-2.84375 0 -11.0 8.15625l0 16.671875l-3.34375 0l0 -13.671875l-7.328125 9.171875l-2.65625 -2.671875l6.65625 -7.828125q1.84375 -2.328125 3.328125 -4.828125l0 -4.0l-7.328125 2.5l-1.0 -3.5l8.328125 -2.171875l0 -9.828125l3.0 0q1.5 0.328125 0.34375 1.328125l0 7.5l1.828125 1.0q1.5 0.671875 -0.328125 1.5l-1.5 3.171875l0 1.15625q7.828125 -7.328125 11.828125 -7.328125q5.0 0 4.5 6.671875l-0.828125 12.828125q-0.171875 2.65625 1.984375 2.65625q2.171875 0 3.171875 -1.15625q1.5 -1.84375 2.5 -4.34375l2.828125 2.34375q-1.65625 3.15625 -3.15625 4.65625q-2.171875 2.171875 -5.0 2.171875q-6.171875 0 -5.828125 -6.328125l0.828125 -12.671875zm27.984314 -0.328125q2.0 -0.671875 3.84375 -0.671875q2.15625 0 3.5 1.34375q1.0 1.0 1.15625 3.65625q5.0 -1.828125 11.328125 -3.828125l1.171875 4.0q-6.5 1.0 -12.15625 3.171875l0 7.328125l-3.34375 0l0 -6.0q-5.0 2.328125 -6.499939 3.828125q-1.828125 1.828125 -1.828125 3.671875q0 1.0 1.0 2.0q1.171875 1.15625 4.499939 1.15625l14.0 0l0 3.171875l-14.171875 0q-5.328064 0 -7.484314 -2.171875q-1.671875 -1.65625 -1.671875 -4.15625q0 -2.671875 2.171875 -4.84375q3.328125 -3.328125 9.828064 -5.984375q-0.171875 -2.0 -0.84375 -2.671875q-0.65625 -0.671875 -2.828125 -0.671875q-3.328064 0 -10.156189 6.0l-2.84375 -2.828125q7.84375 -4.828125 10.671875 -10.671875q-4.671875 0.34375 -9.328125 0.671875l-0.671875 -3.328125q6.0 -0.171875 11.328064 -0.5q0.828125 -2.0 2.0 -6.671875l3.171875 0.84375q1.65625 0.65625 0 1.328125q-0.671875 2.15625 -1.5 4.328125q6.0 -0.5 11.5 -1.328125l0.5 3.5q-6.5 0.5 -13.0 1.0q-1.671875 3.328125 -3.34375 5.328125zm49.162964 4.828125q-1.0 13.671875 -10.671875 18.171875l-1.65625 -3.34375q9.15625 -4.5 9.15625 -18.984375l0 -5.5l-6.328125 0l0 -3.171875l7.671875 0l0 -7.0l3.65625 0q1.671875 0.34375 0.171875 1.34375l0 5.65625l12.828125 0l0 3.171875l-14.65625 0l0 6.5l11.984375 0q-0.65625 14.65625 -2.0 18.328125q-1.0 2.828125 -5.328125 2.828125l-2.65625 0l-0.5 -3.171875l2.5 0q2.15625 0 2.828125 -1.828125q0.65625 -2.0 1.328125 -13.0l-8.328125 0zm-9.671875 3.671875q1.5 9.15625 -4.5 9.15625l-1.984375 0l-0.671875 -3.15625l1.671875 0q2.828125 0 2.328125 -5.0q-0.34375 -3.328125 -3.328125 -9.0l2.65625 -10.328125l-5.0 0l0 33.15625l-3.328125 0l0 -36.328125l9.328125 0l0.328125 -0.65625l3.5 1.828125q0.671875 0.65625 -0.5 0.828125l-3.828125 11.328125q2.828125 5.34375 3.328125 8.171875zm51.328125 -22.328125q1.671875 0.328125 0.171875 1.328125l0 10.171875l10.984375 0l0 3.65625l-10.984375 0l0 15.0l15.328125 0l0 3.671875l-38.15625 0l0 -3.671875l7.65625 0l0 -21.828125l3.671875 0q1.65625 0.328125 0.15625 1.328125l0 20.5l7.5 0l0 -30.15625l3.671875 0z" fill-rule="nonzero"/></g></svg>